<svg xmlns="http://www.w3.org/2000/svg" xmlns:xlink="http://www.w3.org/1999/xlink" width="500" zoomAndPan="magnify" viewBox="0 0 375 374.999991" height="500" preserveAspectRatio="xMidYMid meet" version="1.0"><defs><clipPath id="16cd652122"><path d="M 73.484375 76.03125 L 326 76.03125 L 326 333 L 73.484375 333 Z M 73.484375 76.03125 " clip-rule="nonzero"/></clipPath><clipPath id="c520523a94"><path d="M 60.636719 68.023438 L 313 68.023438 L 313 325 L 60.636719 325 Z M 60.636719 68.023438 " clip-rule="nonzero"/></clipPath><clipPath id="de134f2a4a"><path d="M 46 59.03125 L 298 59.03125 L 298 316 L 46 316 Z M 46 59.03125 " clip-rule="nonzero"/></clipPath></defs><g clip-path="url(#16cd652122)"><path fill="#ff751f" d="M 315.613281 110.121094 C 315.496094 110 315.378906 109.882812 315.257812 109.761719 C 315.140625 109.640625 315.023438 109.523438 314.902344 109.40625 C 314.785156 109.285156 314.667969 109.167969 314.546875 109.050781 C 314.429688 108.929688 314.3125 108.8125 314.191406 108.695312 C 314.074219 108.574219 313.953125 108.457031 313.832031 108.339844 C 313.714844 108.21875 313.597656 108.101562 313.476562 107.984375 C 313.359375 107.863281 313.242188 107.746094 313.121094 107.625 C 313.003906 107.503906 312.886719 107.386719 312.765625 107.269531 C 312.648438 107.148438 312.53125 107.03125 312.410156 106.914062 C 312.292969 106.792969 312.175781 106.675781 312.054688 106.558594 C 311.9375 106.4375 311.816406 106.320312 311.695312 106.203125 C 311.578125 106.082031 311.460938 105.964844 311.339844 105.847656 C 311.222656 105.726562 311.105469 105.609375 310.984375 105.488281 C 310.867188 105.371094 310.75 105.25 310.628906 105.132812 C 310.511719 105.011719 310.394531 104.894531 310.273438 104.777344 C 310.15625 104.65625 310.039062 104.539062 309.917969 104.421875 C 309.800781 104.300781 309.679688 104.183594 309.558594 104.066406 C 309.441406 103.945312 309.324219 103.828125 309.203125 103.710938 C 309.085938 103.589844 308.96875 103.472656 308.847656 103.355469 C 308.730469 103.234375 308.613281 103.113281 308.492188 102.996094 C 308.375 102.875 308.257812 102.757812 308.136719 102.640625 C 308.019531 102.519531 307.902344 102.402344 307.78125 102.285156 C 307.664062 102.164062 307.546875 102.046875 307.425781 101.929688 C 307.304688 101.808594 307.1875 101.691406 307.066406 101.574219 C 306.949219 101.453125 306.832031 101.335938 306.710938 101.21875 C 306.59375 101.097656 306.476562 100.976562 306.355469 100.859375 C 306.238281 100.738281 306.121094 100.621094 306 100.503906 C 305.882812 100.382812 305.765625 100.265625 305.644531 100.148438 C 305.527344 100.027344 305.410156 99.910156 305.289062 99.792969 C 303.890625 98.367188 302.34375 97.035156 300.640625 95.796875 C 296.953125 93.121094 292.484375 90.796875 286.589844 88.5 L 279.582031 85.582031 L 279.367188 85.496094 C 271.738281 82.542969 265.867188 81.230469 260.328125 81.230469 C 250.769531 81.230469 242.625 85.292969 236.773438 92.976562 C 232.964844 97.980469 230.152344 104.34375 227.382812 114.253906 L 225.882812 119.558594 C 225.84375 119.523438 225.804688 119.484375 225.765625 119.449219 C 225.648438 119.332031 225.53125 119.210938 225.410156 119.09375 C 225.292969 118.976562 225.175781 118.855469 225.054688 118.738281 C 224.9375 118.621094 224.820312 118.5 224.699219 118.382812 C 224.582031 118.261719 224.460938 118.140625 224.339844 118.023438 C 224.222656 117.90625 224.105469 117.785156 223.984375 117.667969 C 223.867188 117.550781 223.75 117.429688 223.628906 117.3125 C 223.511719 117.195312 223.394531 117.074219 223.273438 116.957031 C 223.15625 116.839844 223.039062 116.71875 222.917969 116.601562 C 222.800781 116.484375 222.683594 116.363281 222.5625 116.246094 C 222.445312 116.128906 222.328125 116.007812 222.207031 115.886719 C 222.085938 115.769531 221.96875 115.648438 221.847656 115.53125 C 221.730469 115.414062 221.613281 115.292969 221.492188 115.175781 C 221.375 115.058594 221.257812 114.9375 221.136719 114.820312 C 221.019531 114.703125 220.902344 114.582031 220.78125 114.464844 C 220.664062 114.347656 220.546875 114.226562 220.425781 114.109375 C 220.308594 113.992188 220.191406 113.871094 220.070312 113.75 C 219.949219 113.632812 219.832031 113.511719 219.710938 113.394531 C 219.59375 113.277344 219.476562 113.15625 219.355469 113.039062 C 219.238281 112.921875 219.121094 112.800781 219 112.683594 C 218.882812 112.566406 218.765625 112.445312 218.644531 112.328125 C 218.527344 112.210938 218.410156 112.089844 218.289062 111.972656 C 218.171875 111.855469 218.054688 111.734375 217.933594 111.613281 C 217.351562 111.03125 216.742188 110.460938 216.082031 109.914062 C 208.582031 103.652344 199.695312 103.125 191.960938 103.125 C 187 103.125 180.359375 103.597656 173.980469 106.792969 C 173.117188 104.484375 172.105469 102.417969 170.921875 100.507812 C 169.789062 98.683594 168.335938 96.761719 166.492188 94.949219 C 166.375 94.832031 166.257812 94.710938 166.136719 94.59375 C 166.019531 94.476562 165.902344 94.355469 165.78125 94.238281 C 165.664062 94.121094 165.546875 94 165.425781 93.882812 C 165.308594 93.765625 165.191406 93.644531 165.070312 93.523438 C 164.949219 93.40625 164.832031 93.285156 164.710938 93.167969 C 164.59375 93.050781 164.476562 92.929688 164.355469 92.8125 C 164.238281 92.695312 164.121094 92.574219 164 92.457031 C 163.882812 92.339844 163.765625 92.21875 163.644531 92.101562 C 163.527344 91.984375 163.410156 91.863281 163.289062 91.746094 C 163.171875 91.628906 163.054688 91.507812 162.933594 91.386719 C 162.8125 91.269531 162.695312 91.148438 162.574219 91.03125 C 162.457031 90.914062 162.339844 90.792969 162.21875 90.675781 C 162.101562 90.558594 161.984375 90.4375 161.863281 90.320312 C 161.746094 90.203125 161.628906 90.082031 161.507812 89.964844 C 161.390625 89.847656 161.273438 89.726562 161.152344 89.609375 C 161.035156 89.492188 160.917969 89.371094 160.796875 89.253906 C 160.679688 89.132812 160.558594 89.011719 160.4375 88.894531 C 160.320312 88.777344 160.203125 88.65625 160.082031 88.539062 C 159.964844 88.421875 159.847656 88.300781 159.726562 88.183594 C 159.609375 88.066406 159.492188 87.945312 159.371094 87.828125 C 159.253906 87.710938 159.136719 87.589844 159.015625 87.472656 C 158.898438 87.355469 158.78125 87.234375 158.660156 87.117188 C 158.542969 86.996094 158.421875 86.875 158.300781 86.757812 C 158.183594 86.640625 158.066406 86.519531 157.945312 86.402344 C 157.828125 86.285156 157.710938 86.164062 157.589844 86.046875 C 157.472656 85.929688 157.355469 85.808594 157.234375 85.691406 C 157.117188 85.574219 157 85.453125 156.878906 85.335938 C 156.761719 85.21875 156.644531 85.097656 156.523438 84.980469 C 156.40625 84.859375 156.285156 84.738281 156.164062 84.621094 C 151.695312 80.066406 144.824219 76.121094 134.417969 76.121094 C 130.488281 76.121094 126.25 76.664062 121.09375 77.828125 L 106.792969 80.980469 C 96.410156 83.152344 84.921875 86.902344 78.300781 98.128906 C 75.46875 102.933594 73.953125 108.46875 73.675781 115.046875 C 73.484375 119.582031 73.863281 124.824219 74.882812 131.578125 L 98.34375 285.132812 C 100.074219 296.476562 102.441406 303.722656 106.257812 309.363281 C 107.285156 310.878906 108.558594 312.472656 110.113281 314.003906 C 110.230469 314.121094 110.351562 314.242188 110.472656 314.359375 C 110.589844 314.476562 110.707031 314.597656 110.828125 314.714844 C 110.945312 314.832031 111.0625 314.953125 111.183594 315.070312 C 111.300781 315.1875 111.417969 315.308594 111.539062 315.425781 C 111.65625 315.542969 111.773438 315.664062 111.894531 315.78125 C 112.011719 315.898438 112.128906 316.019531 112.25 316.140625 C 112.367188 316.257812 112.488281 316.378906 112.609375 316.496094 C 112.726562 316.613281 112.84375 316.734375 112.964844 316.851562 C 113.082031 316.96875 113.199219 317.089844 113.320312 317.207031 C 113.4375 317.324219 113.554688 317.445312 113.675781 317.5625 C 113.792969 317.679688 113.910156 317.800781 114.03125 317.917969 C 114.148438 318.035156 114.265625 318.15625 114.386719 318.277344 C 114.503906 318.394531 114.625 318.515625 114.746094 318.632812 C 114.863281 318.75 114.980469 318.871094 115.101562 318.988281 C 115.21875 319.105469 115.335938 319.226562 115.457031 319.34375 C 115.574219 319.460938 115.691406 319.582031 115.8125 319.699219 C 115.929688 319.816406 116.046875 319.9375 116.167969 320.054688 C 116.285156 320.171875 116.402344 320.292969 116.523438 320.410156 C 116.640625 320.53125 116.757812 320.652344 116.878906 320.769531 C 117 320.886719 117.117188 321.007812 117.238281 321.125 C 117.355469 321.242188 117.472656 321.363281 117.59375 321.480469 C 117.710938 321.597656 117.828125 321.71875 117.949219 321.835938 C 118.066406 321.953125 118.183594 322.074219 118.304688 322.191406 C 118.421875 322.308594 118.539062 322.429688 118.660156 322.546875 C 118.777344 322.667969 118.894531 322.789062 119.015625 322.90625 C 119.136719 323.023438 119.253906 323.144531 119.375 323.261719 C 119.492188 323.378906 119.609375 323.5 119.730469 323.617188 C 119.847656 323.734375 119.964844 323.855469 120.085938 323.972656 C 120.203125 324.089844 120.320312 324.210938 120.441406 324.328125 C 124.871094 328.835938 131.722656 332.875 142.054688 332.875 C 146.21875 332.875 150.8125 332.234375 156.519531 330.859375 L 156.660156 330.824219 C 173.046875 326.730469 179.894531 321.300781 184.425781 316.535156 C 187.09375 313.730469 189.261719 310.632812 191.074219 307.359375 C 191.285156 307.578125 191.5 307.792969 191.714844 308 C 191.832031 308.121094 191.949219 308.242188 192.070312 308.359375 C 192.1875 308.476562 192.308594 308.597656 192.429688 308.714844 C 192.546875 308.832031 192.664062 308.953125 192.785156 309.070312 C 192.902344 309.1875 193.019531 309.308594 193.140625 309.425781 C 193.257812 309.542969 193.375 309.664062 193.496094 309.78125 C 193.613281 309.898438 193.730469 310.019531 193.851562 310.136719 C 193.96875 310.257812 194.085938 310.378906 194.207031 310.496094 C 194.324219 310.613281 194.445312 310.734375 194.566406 310.851562 C 194.683594 310.96875 194.800781 311.089844 194.921875 311.207031 C 195.039062 311.324219 195.15625 311.445312 195.277344 311.5625 C 195.394531 311.679688 195.511719 311.800781 195.632812 311.917969 C 195.75 312.035156 195.867188 312.15625 195.988281 312.273438 C 196.105469 312.394531 196.222656 312.511719 196.34375 312.632812 C 196.460938 312.75 196.578125 312.871094 196.699219 312.988281 C 196.820312 313.105469 196.9375 313.226562 197.058594 313.34375 C 197.175781 313.460938 197.292969 313.582031 197.414062 313.699219 C 197.53125 313.816406 197.648438 313.9375 197.769531 314.054688 C 197.886719 314.171875 198.003906 314.292969 198.125 314.410156 C 198.242188 314.527344 198.359375 314.648438 198.480469 314.769531 C 198.597656 314.886719 198.714844 315.007812 198.835938 315.125 C 198.957031 315.242188 199.074219 315.363281 199.195312 315.480469 C 199.3125 315.597656 199.429688 315.71875 199.550781 315.835938 C 199.667969 315.953125 199.785156 316.074219 199.90625 316.191406 C 200.023438 316.308594 200.140625 316.429688 200.261719 316.546875 C 200.378906 316.664062 200.496094 316.785156 200.617188 316.90625 C 200.734375 317.023438 200.851562 317.144531 200.972656 317.261719 C 201.09375 317.378906 201.210938 317.5 201.332031 317.617188 C 201.449219 317.734375 201.566406 317.855469 201.6875 317.972656 C 201.804688 318.089844 201.921875 318.210938 202.042969 318.328125 C 208.808594 325.105469 217.410156 328.148438 225.105469 330.214844 L 225.226562 330.246094 C 231.3125 331.839844 235.96875 332.546875 240.316406 332.546875 C 252.0625 332.546875 259.378906 326.941406 263.445312 322.238281 C 267.492188 317.5625 270.507812 311.507812 273.53125 301.996094 L 321.136719 154.242188 C 324.613281 143.300781 327.203125 131.648438 322.683594 120.574219 C 321.09375 116.6875 318.730469 113.1875 315.628906 110.117188 Z M 315.613281 110.121094 " fill-opacity="1" fill-rule="nonzero"/></g><path fill="#ffffff" d="M 131.367188 315.78125 C 122.722656 315.78125 116.0625 312.414062 111.5625 305.773438 C 108.3125 300.96875 106.253906 294.507812 104.671875 284.167969 L 81.21875 130.609375 C 79.429688 118.742188 79.1875 109.242188 83.824219 101.382812 C 89.1875 92.292969 99.113281 89.132812 108.136719 87.246094 L 122.488281 84.085938 C 127.179688 83.027344 130.976562 82.53125 134.421875 82.53125 C 145.78125 82.53125 151.773438 88.339844 154.796875 93.210938 C 157.992188 98.351562 159.75 105.160156 160.679688 115.976562 L 162.222656 133.875 C 164.042969 127.410156 166.519531 120.953125 171.429688 116.324219 C 177.804688 110.308594 185.75 109.539062 191.964844 109.539062 C 198.878906 109.539062 206.125 109.949219 211.980469 114.839844 C 217.550781 119.484375 219.625 126.15625 221.03125 134.742188 L 223.601562 151.207031 L 233.558594 115.980469 C 236.09375 106.914062 238.585938 101.1875 241.875 96.867188 C 246.464844 90.832031 252.847656 87.644531 260.328125 87.644531 C 265.039062 87.644531 270.195312 88.828125 277.054688 91.480469 L 277.195312 91.535156 L 284.191406 94.453125 C 292.777344 97.789062 302.054688 102.527344 306.054688 112.324219 C 309.800781 121.507812 307.441406 131.839844 304.332031 141.628906 L 256.730469 289.375 C 253.988281 298.007812 251.347656 303.394531 247.90625 307.371094 C 243.261719 312.742188 237.109375 315.460938 229.621094 315.460938 C 225.84375 315.460938 221.6875 314.816406 216.152344 313.367188 L 216.074219 313.347656 C 208.03125 311.183594 199.78125 308.1875 193.90625 300.925781 C 188.234375 293.921875 186.359375 284.683594 185.175781 275.742188 L 183.925781 266.554688 L 181.535156 275.328125 C 179.046875 284.710938 175.8125 294.371094 169.089844 301.441406 C 162.160156 308.730469 153.136719 311.75 144.417969 313.925781 L 144.328125 313.949219 C 139.128906 315.203125 135.011719 315.785156 131.367188 315.785156 Z M 131.367188 315.78125 " fill-opacity="1" fill-rule="nonzero"/><path fill="#00bf63" d="M 131.367188 307.949219 C 125.398438 307.949219 121.042969 305.800781 118.050781 301.382812 C 115.496094 297.605469 113.8125 292.101562 112.417969 282.984375 L 88.960938 129.425781 C 87.425781 119.226562 87.109375 111.234375 90.570312 105.367188 C 94.382812 98.902344 102.054688 96.519531 109.785156 94.90625 L 124.203125 91.730469 C 128.253906 90.816406 131.601562 90.367188 134.421875 90.367188 C 149.363281 90.367188 151.734375 103.351562 152.878906 116.652344 L 158.167969 178.039062 L 169.355469 137.488281 C 171.160156 130.726562 173.121094 125.492188 176.800781 122.019531 C 180.261719 118.761719 184.792969 117.371094 191.960938 117.371094 C 199.128906 117.371094 203.472656 117.941406 206.960938 120.847656 C 210.667969 123.945312 212.171875 129.144531 213.296875 136.003906 L 221.390625 187.828125 L 241.097656 118.105469 C 245.007812 104.136719 249.585938 95.472656 260.328125 95.472656 C 264.03125 95.472656 268.316406 96.492188 274.226562 98.78125 L 274.3125 98.816406 L 281.265625 101.714844 C 288.671875 104.582031 295.914062 108.214844 298.800781 115.277344 C 301.066406 120.835938 300.507812 127.777344 296.867188 139.25 L 249.265625 286.988281 C 245.121094 300.050781 240.574219 307.625 229.621094 307.625 C 226.582031 307.625 222.929688 307.039062 218.132812 305.785156 C 200.757812 301.117188 195.582031 294.726562 192.945312 274.695312 L 186.507812 227.339844 L 173.96875 273.308594 C 170.933594 284.757812 167.871094 291.355469 163.414062 296.042969 C 158.929688 300.761719 152.875 303.738281 142.519531 306.328125 C 137.914062 307.4375 134.375 307.957031 131.367188 307.957031 Z M 131.367188 307.949219 " fill-opacity="1" fill-rule="nonzero"/><path fill="#efe44f" d="M 127.804688 295.839844 C 124.339844 295.839844 123.003906 294.867188 121.867188 293.1875 C 120.144531 290.644531 118.808594 285.957031 117.660156 278.433594 L 94.199219 124.875 C 92.738281 115.171875 92.878906 109.726562 94.679688 106.683594 C 96.339844 103.863281 100.21875 102.046875 108.054688 100.414062 L 122.554688 97.21875 C 125.996094 96.4375 128.707031 96.0625 130.859375 96.0625 C 134.554688 96.0625 135.953125 97.125 137.019531 98.839844 C 138.683594 101.519531 139.769531 106.402344 140.445312 114.207031 L 147.4375 195.363281 L 157.90625 196.324219 L 174.386719 136.605469 C 176.046875 130.390625 177.527344 127.007812 179.347656 125.289062 C 180.515625 124.1875 182.503906 123.0625 188.398438 123.0625 C 193.800781 123.0625 196.496094 123.472656 197.695312 124.472656 C 199.003906 125.566406 200.039062 128.660156 200.945312 134.214844 L 211.542969 202.085938 L 221.960938 202.714844 L 246.097656 117.320312 C 250.277344 102.382812 253.398438 101.167969 256.765625 101.167969 C 259.234375 101.167969 262.710938 102.042969 267.386719 103.847656 L 274.382812 106.765625 L 274.445312 106.789062 C 281.953125 109.691406 285.707031 112.277344 286.992188 115.429688 C 288.359375 118.777344 287.683594 124.300781 284.816406 133.339844 L 237.226562 281.042969 C 232.945312 294.53125 230.148438 295.503906 226.058594 295.503906 C 223.800781 295.503906 220.871094 295.011719 216.835938 293.957031 C 209.480469 291.980469 205.699219 290.074219 203.347656 287.171875 C 200.871094 284.113281 199.382812 279.230469 198.207031 270.3125 L 189.40625 205.578125 L 178.964844 204.890625 L 161.808594 267.785156 C 156.933594 286.1875 152.960938 290.433594 136.824219 294.460938 C 133.011719 295.382812 130.058594 295.832031 127.808594 295.832031 Z M 127.804688 295.839844 " fill-opacity="1" fill-rule="nonzero"/><g clip-path="url(#c520523a94)"><path fill="#5170ff" d="M 302.765625 102.113281 C 302.648438 101.992188 302.53125 101.871094 302.410156 101.753906 C 302.292969 101.632812 302.175781 101.515625 302.054688 101.398438 C 301.9375 101.277344 301.820312 101.160156 301.699219 101.042969 C 301.582031 100.921875 301.464844 100.804688 301.34375 100.6875 C 301.226562 100.566406 301.109375 100.449219 300.988281 100.332031 C 300.871094 100.210938 300.75 100.09375 300.628906 99.976562 C 300.511719 99.855469 300.394531 99.738281 300.273438 99.617188 C 300.15625 99.496094 300.039062 99.378906 299.917969 99.261719 C 299.800781 99.140625 299.683594 99.023438 299.5625 98.90625 C 299.445312 98.785156 299.328125 98.667969 299.207031 98.550781 C 299.089844 98.429688 298.972656 98.3125 298.851562 98.195312 C 298.734375 98.074219 298.613281 97.957031 298.492188 97.839844 C 298.375 97.71875 298.257812 97.601562 298.136719 97.480469 C 298.019531 97.359375 297.902344 97.242188 297.78125 97.125 C 297.664062 97.003906 297.546875 96.886719 297.425781 96.769531 C 297.308594 96.648438 297.191406 96.53125 297.070312 96.414062 C 296.953125 96.292969 296.835938 96.175781 296.714844 96.058594 C 296.597656 95.9375 296.476562 95.820312 296.355469 95.703125 C 296.238281 95.582031 296.121094 95.464844 296 95.34375 C 295.882812 95.222656 295.765625 95.105469 295.644531 94.988281 C 295.527344 94.867188 295.410156 94.75 295.289062 94.632812 C 295.171875 94.511719 295.054688 94.394531 294.933594 94.277344 C 294.816406 94.15625 294.699219 94.039062 294.578125 93.921875 C 294.460938 93.800781 294.34375 93.683594 294.222656 93.566406 C 294.101562 93.445312 293.984375 93.328125 293.863281 93.210938 C 293.746094 93.089844 293.628906 92.96875 293.507812 92.851562 C 293.390625 92.730469 293.273438 92.613281 293.152344 92.496094 C 293.035156 92.375 292.917969 92.257812 292.796875 92.140625 C 292.679688 92.019531 292.5625 91.902344 292.441406 91.785156 C 291.042969 90.359375 289.496094 89.027344 287.792969 87.789062 C 284.109375 85.109375 279.636719 82.789062 273.742188 80.492188 L 266.738281 77.574219 L 266.519531 77.488281 C 258.890625 74.535156 253.019531 73.222656 247.480469 73.222656 C 237.921875 73.222656 229.777344 77.285156 223.925781 84.96875 C 220.117188 89.972656 217.304688 96.335938 214.535156 106.246094 L 213.035156 111.550781 C 212.996094 111.515625 212.957031 111.476562 212.917969 111.441406 C 212.800781 111.324219 212.683594 111.203125 212.5625 111.085938 C 212.445312 110.96875 212.328125 110.847656 212.207031 110.730469 C 212.089844 110.613281 211.972656 110.492188 211.851562 110.375 C 211.734375 110.253906 211.617188 110.132812 211.496094 110.015625 C 211.378906 109.898438 211.257812 109.777344 211.136719 109.660156 C 211.019531 109.542969 210.902344 109.421875 210.78125 109.304688 C 210.664062 109.1875 210.546875 109.066406 210.425781 108.949219 C 210.308594 108.832031 210.191406 108.710938 210.070312 108.59375 C 209.953125 108.476562 209.835938 108.355469 209.714844 108.238281 C 209.597656 108.117188 209.480469 107.996094 209.359375 107.878906 C 209.242188 107.761719 209.125 107.640625 209.003906 107.523438 C 208.882812 107.40625 208.765625 107.285156 208.644531 107.167969 C 208.527344 107.050781 208.410156 106.929688 208.289062 106.8125 C 208.171875 106.695312 208.054688 106.574219 207.933594 106.457031 C 207.816406 106.339844 207.699219 106.21875 207.578125 106.101562 C 207.460938 105.980469 207.34375 105.863281 207.222656 105.742188 C 207.105469 105.625 206.988281 105.503906 206.867188 105.386719 C 206.746094 105.269531 206.628906 105.148438 206.507812 105.03125 C 206.390625 104.914062 206.273438 104.792969 206.152344 104.675781 C 206.035156 104.558594 205.917969 104.4375 205.796875 104.320312 C 205.679688 104.203125 205.5625 104.082031 205.441406 103.964844 C 205.324219 103.847656 205.207031 103.726562 205.085938 103.605469 C 204.503906 103.023438 203.894531 102.453125 203.238281 101.90625 C 195.734375 95.644531 186.847656 95.117188 179.113281 95.117188 C 174.152344 95.117188 167.511719 95.585938 161.136719 98.785156 C 160.269531 96.476562 159.257812 94.410156 158.074219 92.5 C 156.945312 90.675781 155.492188 88.753906 153.644531 86.941406 C 153.527344 86.824219 153.410156 86.703125 153.289062 86.585938 C 153.171875 86.46875 153.054688 86.347656 152.933594 86.230469 C 152.816406 86.113281 152.699219 85.992188 152.578125 85.875 C 152.460938 85.753906 152.34375 85.632812 152.222656 85.515625 C 152.105469 85.398438 151.988281 85.277344 151.867188 85.160156 C 151.746094 85.042969 151.628906 84.921875 151.507812 84.804688 C 151.390625 84.6875 151.273438 84.566406 151.152344 84.449219 C 151.035156 84.332031 150.917969 84.210938 150.796875 84.09375 C 150.679688 83.976562 150.5625 83.855469 150.441406 83.738281 C 150.324219 83.621094 150.207031 83.5 150.085938 83.378906 C 149.96875 83.261719 149.851562 83.140625 149.730469 83.023438 C 149.609375 82.90625 149.492188 82.785156 149.371094 82.667969 C 149.253906 82.550781 149.136719 82.429688 149.015625 82.3125 C 148.898438 82.195312 148.78125 82.074219 148.660156 81.957031 C 148.542969 81.839844 148.425781 81.71875 148.304688 81.601562 C 148.1875 81.484375 148.070312 81.363281 147.949219 81.242188 C 147.832031 81.125 147.714844 81.003906 147.59375 80.886719 C 147.476562 80.769531 147.355469 80.648438 147.234375 80.53125 C 147.117188 80.414062 147 80.292969 146.878906 80.175781 C 146.761719 80.058594 146.644531 79.9375 146.523438 79.820312 C 146.40625 79.703125 146.289062 79.582031 146.167969 79.464844 C 146.050781 79.347656 145.933594 79.226562 145.8125 79.105469 C 145.695312 78.988281 145.578125 78.867188 145.457031 78.75 C 145.339844 78.632812 145.21875 78.511719 145.097656 78.394531 C 144.980469 78.277344 144.863281 78.15625 144.742188 78.039062 C 144.625 77.921875 144.507812 77.800781 144.386719 77.683594 C 144.269531 77.566406 144.152344 77.445312 144.03125 77.328125 C 143.914062 77.210938 143.796875 77.089844 143.675781 76.972656 C 143.558594 76.851562 143.441406 76.730469 143.320312 76.613281 C 138.851562 72.058594 131.976562 68.113281 121.570312 68.113281 C 117.640625 68.113281 113.402344 68.65625 108.246094 69.820312 L 93.945312 72.972656 C 83.5625 75.144531 72.074219 78.894531 65.453125 90.121094 C 62.621094 94.925781 61.105469 100.460938 60.828125 107.039062 C 60.636719 111.574219 61.015625 116.816406 62.035156 123.570312 L 85.496094 277.125 C 87.226562 288.46875 89.59375 295.714844 93.410156 301.355469 C 94.4375 302.871094 95.710938 304.464844 97.269531 305.996094 C 97.386719 306.113281 97.503906 306.234375 97.625 306.351562 C 97.742188 306.46875 97.859375 306.589844 97.980469 306.707031 C 98.097656 306.824219 98.214844 306.945312 98.335938 307.0625 C 98.453125 307.179688 98.570312 307.300781 98.691406 307.417969 C 98.808594 307.535156 98.925781 307.65625 99.046875 307.773438 C 99.164062 307.890625 99.285156 308.011719 99.40625 308.128906 C 99.523438 308.25 99.640625 308.371094 99.761719 308.488281 C 99.878906 308.605469 99.996094 308.726562 100.117188 308.84375 C 100.234375 308.960938 100.351562 309.082031 100.472656 309.199219 C 100.589844 309.316406 100.707031 309.4375 100.828125 309.554688 C 100.945312 309.671875 101.0625 309.792969 101.183594 309.910156 C 101.300781 310.027344 101.421875 310.148438 101.542969 310.265625 C 101.660156 310.386719 101.777344 310.507812 101.898438 310.625 C 102.015625 310.742188 102.132812 310.863281 102.253906 310.980469 C 102.371094 311.097656 102.488281 311.21875 102.609375 311.335938 C 102.726562 311.453125 102.84375 311.574219 102.964844 311.691406 C 103.082031 311.808594 103.199219 311.929688 103.320312 312.046875 C 103.4375 312.164062 103.554688 312.285156 103.675781 312.402344 C 103.796875 312.523438 103.914062 312.644531 104.035156 312.761719 C 104.152344 312.878906 104.269531 313 104.390625 313.117188 C 104.507812 313.234375 104.625 313.355469 104.746094 313.472656 C 104.863281 313.589844 104.980469 313.710938 105.101562 313.828125 C 105.21875 313.945312 105.335938 314.066406 105.457031 314.183594 C 105.574219 314.300781 105.691406 314.421875 105.8125 314.539062 C 105.933594 314.65625 106.050781 314.777344 106.171875 314.898438 C 106.289062 315.015625 106.40625 315.136719 106.527344 315.253906 C 106.644531 315.371094 106.761719 315.492188 106.882812 315.609375 C 107 315.726562 107.117188 315.847656 107.238281 315.964844 C 107.355469 316.082031 107.472656 316.203125 107.59375 316.320312 C 112.023438 320.828125 118.875 324.867188 129.207031 324.867188 C 133.375 324.867188 137.964844 324.226562 143.671875 322.851562 L 143.8125 322.816406 C 160.203125 318.722656 167.046875 313.292969 171.578125 308.527344 C 174.246094 305.722656 176.414062 302.625 178.226562 299.351562 C 178.4375 299.570312 178.652344 299.785156 178.867188 299.992188 C 178.984375 300.113281 179.105469 300.234375 179.226562 300.351562 C 179.34375 300.46875 179.460938 300.589844 179.582031 300.707031 C 179.699219 300.824219 179.816406 300.945312 179.9375 301.0625 C 180.054688 301.179688 180.171875 301.300781 180.292969 301.417969 C 180.410156 301.535156 180.527344 301.65625 180.648438 301.773438 C 180.765625 301.890625 180.882812 302.011719 181.003906 302.128906 C 181.121094 302.246094 181.242188 302.367188 181.363281 302.488281 C 181.480469 302.605469 181.597656 302.726562 181.71875 302.84375 C 181.835938 302.960938 181.953125 303.082031 182.074219 303.199219 C 182.191406 303.316406 182.308594 303.4375 182.429688 303.554688 C 182.546875 303.671875 182.664062 303.792969 182.785156 303.910156 C 182.902344 304.027344 183.019531 304.148438 183.140625 304.265625 C 183.257812 304.382812 183.375 304.503906 183.496094 304.625 C 183.617188 304.742188 183.734375 304.863281 183.855469 304.980469 C 183.972656 305.097656 184.089844 305.21875 184.210938 305.335938 C 184.328125 305.453125 184.445312 305.574219 184.566406 305.691406 C 184.683594 305.808594 184.800781 305.929688 184.921875 306.046875 C 185.039062 306.164062 185.15625 306.285156 185.277344 306.402344 C 185.394531 306.519531 185.511719 306.640625 185.632812 306.761719 C 185.753906 306.878906 185.871094 307 185.992188 307.117188 C 186.109375 307.234375 186.226562 307.355469 186.347656 307.472656 C 186.464844 307.589844 186.582031 307.710938 186.703125 307.828125 C 186.820312 307.945312 186.9375 308.066406 187.058594 308.183594 C 187.175781 308.300781 187.292969 308.421875 187.414062 308.539062 C 187.53125 308.65625 187.648438 308.777344 187.769531 308.894531 C 187.890625 309.015625 188.007812 309.136719 188.128906 309.253906 C 188.246094 309.371094 188.363281 309.492188 188.484375 309.609375 C 188.601562 309.726562 188.71875 309.847656 188.839844 309.964844 C 188.957031 310.082031 189.074219 310.203125 189.195312 310.320312 C 195.960938 317.097656 204.5625 320.136719 212.257812 322.207031 L 212.378906 322.238281 C 218.46875 323.832031 223.121094 324.539062 227.46875 324.539062 C 239.21875 324.539062 246.53125 318.933594 250.597656 314.230469 C 254.644531 309.554688 257.660156 303.496094 260.683594 293.988281 L 308.289062 146.234375 C 311.765625 135.292969 314.355469 123.640625 309.835938 112.566406 C 308.246094 108.679688 305.882812 105.175781 302.78125 102.109375 Z M 302.765625 102.113281 " fill-opacity="1" fill-rule="nonzero"/></g><path fill="#ffffff" d="M 118.519531 307.773438 C 109.875 307.773438 103.214844 304.40625 98.71875 297.765625 C 95.464844 292.960938 93.40625 286.5 91.828125 276.160156 L 68.371094 122.601562 C 66.582031 110.734375 66.339844 101.234375 70.976562 93.375 C 76.339844 84.285156 86.269531 81.121094 95.292969 79.238281 L 109.640625 76.078125 C 114.332031 75.019531 118.128906 74.523438 121.574219 74.523438 C 132.933594 74.523438 138.925781 80.332031 141.953125 85.203125 C 145.144531 90.34375 146.90625 97.152344 147.835938 107.96875 L 149.375 125.867188 C 151.195312 119.402344 153.671875 112.945312 158.582031 108.316406 C 164.960938 102.300781 172.902344 101.53125 179.117188 101.53125 C 186.035156 101.53125 193.277344 101.941406 199.132812 106.828125 C 204.703125 111.476562 206.78125 118.148438 208.183594 126.734375 L 210.753906 143.199219 L 220.710938 107.972656 C 223.246094 98.90625 225.738281 93.179688 229.027344 88.859375 C 233.621094 82.824219 240 79.636719 247.480469 79.636719 C 252.195312 79.636719 257.351562 80.820312 264.207031 83.472656 L 264.347656 83.527344 L 271.34375 86.445312 C 279.929688 89.78125 289.207031 94.519531 293.207031 104.316406 C 296.957031 113.5 294.59375 123.832031 291.484375 133.621094 L 243.882812 281.367188 C 241.140625 290 238.5 295.386719 235.058594 299.363281 C 230.414062 304.734375 224.261719 307.453125 216.777344 307.453125 C 212.996094 307.453125 208.839844 306.808594 203.304688 305.359375 L 203.226562 305.339844 C 195.183594 303.175781 186.933594 300.179688 181.058594 292.917969 C 175.386719 285.914062 173.511719 276.675781 172.332031 267.734375 L 171.082031 258.546875 L 168.6875 267.320312 C 166.199219 276.703125 162.964844 286.363281 156.242188 293.433594 C 149.3125 300.722656 140.289062 303.742188 131.570312 305.917969 L 131.480469 305.941406 C 126.28125 307.195312 122.167969 307.777344 118.519531 307.777344 Z M 118.519531 307.773438 " fill-opacity="1" fill-rule="nonzero"/><path fill="#00bf63" d="M 118.519531 299.941406 C 112.550781 299.941406 108.195312 297.792969 105.207031 293.375 C 102.648438 289.59375 100.964844 284.09375 99.570312 274.976562 L 76.117188 121.417969 C 74.578125 111.21875 74.265625 103.226562 77.726562 97.359375 C 81.535156 90.894531 89.210938 88.511719 96.9375 86.898438 L 111.355469 83.722656 C 115.40625 82.808594 118.753906 82.359375 121.574219 82.359375 C 136.515625 82.359375 138.886719 95.34375 140.03125 108.640625 L 145.320312 170.03125 L 156.507812 129.480469 C 158.3125 122.71875 160.273438 117.484375 163.957031 114.011719 C 167.414062 110.753906 171.945312 109.363281 179.113281 109.363281 C 186.28125 109.363281 190.628906 109.929688 194.113281 112.839844 C 197.820312 115.933594 199.328125 121.136719 200.449219 127.996094 L 208.542969 179.820312 L 228.25 110.097656 C 232.160156 96.128906 236.738281 87.464844 247.480469 87.464844 C 251.183594 87.464844 255.46875 88.484375 261.382812 90.773438 L 261.464844 90.808594 L 268.417969 93.707031 C 275.824219 96.574219 283.066406 100.207031 285.953125 107.269531 C 288.21875 112.828125 287.660156 119.769531 284.019531 131.242188 L 236.417969 278.980469 C 232.273438 292.042969 227.726562 299.617188 216.777344 299.617188 C 213.734375 299.617188 210.085938 299.03125 205.285156 297.777344 C 187.910156 293.109375 182.734375 286.71875 180.097656 266.6875 L 173.660156 219.332031 L 161.121094 265.300781 C 158.085938 276.75 155.023438 283.347656 150.566406 288.035156 C 146.082031 292.753906 140.027344 295.730469 129.671875 298.320312 C 125.066406 299.429688 121.527344 299.949219 118.519531 299.949219 Z M 118.519531 299.941406 " fill-opacity="1" fill-rule="nonzero"/><path fill="#efe44f" d="M 114.960938 287.832031 C 111.496094 287.832031 110.160156 286.859375 109.019531 285.179688 C 107.300781 282.636719 105.960938 277.949219 104.8125 270.425781 L 81.355469 116.867188 C 79.890625 107.164062 80.03125 101.71875 81.832031 98.675781 C 83.492188 95.855469 87.371094 94.039062 95.210938 92.402344 L 109.707031 89.210938 C 113.148438 88.429688 115.859375 88.054688 118.011719 88.054688 C 121.707031 88.054688 123.105469 89.117188 124.171875 90.832031 C 125.839844 93.511719 126.925781 98.394531 127.597656 106.199219 L 134.589844 187.355469 L 145.058594 188.316406 L 161.539062 128.597656 C 163.199219 122.382812 164.679688 118.996094 166.5 117.28125 C 167.667969 116.179688 169.65625 115.054688 175.554688 115.054688 C 180.953125 115.054688 183.648438 115.464844 184.847656 116.464844 C 186.15625 117.558594 187.191406 120.652344 188.097656 126.207031 L 198.695312 194.078125 L 209.113281 194.707031 L 233.25 109.3125 C 237.429688 94.375 240.550781 93.160156 243.917969 93.160156 C 246.390625 93.160156 249.863281 94.035156 254.539062 95.839844 L 261.535156 98.757812 L 261.597656 98.78125 C 269.105469 101.683594 272.859375 104.269531 274.144531 107.421875 C 275.511719 110.769531 274.839844 116.292969 271.96875 125.332031 L 224.378906 273.035156 C 220.097656 286.523438 217.304688 287.496094 213.210938 287.496094 C 210.953125 287.496094 208.023438 287.003906 203.988281 285.949219 C 196.632812 283.972656 192.851562 282.066406 190.503906 279.164062 C 188.023438 276.105469 186.535156 271.222656 185.359375 262.304688 L 176.5625 197.570312 L 166.117188 196.882812 L 148.964844 259.777344 C 144.085938 278.179688 140.113281 282.421875 123.980469 286.453125 C 120.164062 287.375 117.214844 287.824219 114.960938 287.824219 Z M 114.960938 287.832031 " fill-opacity="1" fill-rule="nonzero"/><g clip-path="url(#de134f2a4a)"><path fill="#1a1a1a" d="M 288.035156 93.117188 C 287.917969 92.996094 287.800781 92.878906 287.679688 92.761719 C 287.5625 92.640625 287.445312 92.523438 287.324219 92.40625 C 287.207031 92.285156 287.089844 92.167969 286.96875 92.050781 C 286.851562 91.929688 286.734375 91.8125 286.613281 91.695312 C 286.492188 91.574219 286.375 91.457031 286.253906 91.339844 C 286.136719 91.21875 286.019531 91.097656 285.898438 90.980469 C 285.78125 90.859375 285.664062 90.742188 285.542969 90.625 C 285.425781 90.503906 285.308594 90.386719 285.1875 90.269531 C 285.070312 90.148438 284.953125 90.03125 284.832031 89.914062 C 284.714844 89.792969 284.597656 89.675781 284.476562 89.558594 C 284.355469 89.4375 284.238281 89.320312 284.117188 89.203125 C 284 89.082031 283.882812 88.964844 283.761719 88.84375 C 283.644531 88.722656 283.527344 88.605469 283.40625 88.488281 C 283.289062 88.367188 283.171875 88.25 283.050781 88.132812 C 282.933594 88.011719 282.816406 87.894531 282.695312 87.777344 C 282.578125 87.65625 282.460938 87.539062 282.339844 87.421875 C 282.222656 87.300781 282.101562 87.183594 281.980469 87.066406 C 281.863281 86.945312 281.746094 86.828125 281.625 86.707031 C 281.507812 86.585938 281.390625 86.46875 281.269531 86.351562 C 281.152344 86.230469 281.035156 86.113281 280.914062 85.996094 C 280.796875 85.875 280.679688 85.757812 280.558594 85.640625 C 280.441406 85.519531 280.324219 85.402344 280.203125 85.285156 C 280.085938 85.164062 279.964844 85.046875 279.84375 84.929688 C 279.726562 84.808594 279.609375 84.691406 279.488281 84.570312 C 279.371094 84.449219 279.253906 84.332031 279.132812 84.214844 C 279.015625 84.09375 278.898438 83.976562 278.777344 83.859375 C 278.660156 83.738281 278.542969 83.621094 278.421875 83.503906 C 278.304688 83.382812 278.1875 83.265625 278.066406 83.148438 C 277.949219 83.027344 277.828125 82.910156 277.707031 82.792969 C 276.3125 81.367188 274.765625 80.035156 273.0625 78.796875 C 269.375 76.117188 264.90625 73.796875 259.011719 71.5 L 252.003906 68.578125 L 251.789062 68.496094 C 244.160156 65.542969 238.289062 64.226562 232.75 64.226562 C 223.191406 64.226562 215.046875 68.292969 209.195312 75.976562 C 205.382812 80.980469 202.574219 87.34375 199.804688 97.253906 L 198.304688 102.558594 C 198.265625 102.523438 198.226562 102.484375 198.1875 102.449219 C 198.070312 102.332031 197.953125 102.210938 197.832031 102.09375 C 197.714844 101.976562 197.597656 101.855469 197.476562 101.734375 C 197.359375 101.617188 197.242188 101.496094 197.121094 101.378906 C 197.003906 101.261719 196.882812 101.140625 196.761719 101.023438 C 196.644531 100.90625 196.527344 100.785156 196.40625 100.667969 C 196.289062 100.550781 196.171875 100.429688 196.050781 100.3125 C 195.933594 100.195312 195.816406 100.074219 195.695312 99.957031 C 195.578125 99.839844 195.460938 99.71875 195.339844 99.601562 C 195.222656 99.480469 195.105469 99.359375 194.984375 99.242188 C 194.867188 99.125 194.746094 99.003906 194.625 98.886719 C 194.507812 98.769531 194.390625 98.648438 194.269531 98.53125 C 194.152344 98.414062 194.035156 98.292969 193.914062 98.175781 C 193.796875 98.058594 193.679688 97.9375 193.558594 97.820312 C 193.441406 97.703125 193.324219 97.582031 193.203125 97.464844 C 193.085938 97.34375 192.96875 97.222656 192.847656 97.105469 C 192.730469 96.988281 192.609375 96.867188 192.488281 96.75 C 192.371094 96.632812 192.253906 96.511719 192.132812 96.394531 C 192.015625 96.277344 191.898438 96.15625 191.777344 96.039062 C 191.660156 95.921875 191.542969 95.800781 191.421875 95.683594 C 191.304688 95.566406 191.1875 95.445312 191.066406 95.328125 C 190.949219 95.207031 190.832031 95.089844 190.710938 94.96875 C 190.59375 94.851562 190.476562 94.730469 190.355469 94.613281 C 189.773438 94.03125 189.164062 93.460938 188.503906 92.914062 C 181.003906 86.652344 172.117188 86.125 164.382812 86.125 C 159.421875 86.125 152.78125 86.59375 146.402344 89.792969 C 145.539062 87.484375 144.527344 85.417969 143.34375 83.507812 C 142.210938 81.683594 140.757812 79.761719 138.914062 77.949219 C 138.796875 77.832031 138.679688 77.710938 138.558594 77.59375 C 138.441406 77.476562 138.324219 77.355469 138.203125 77.238281 C 138.085938 77.117188 137.96875 76.996094 137.847656 76.878906 C 137.730469 76.761719 137.613281 76.640625 137.492188 76.523438 C 137.371094 76.40625 137.253906 76.285156 137.132812 76.167969 C 137.015625 76.050781 136.898438 75.929688 136.777344 75.8125 C 136.660156 75.695312 136.542969 75.574219 136.421875 75.457031 C 136.304688 75.339844 136.1875 75.21875 136.066406 75.101562 C 135.949219 74.980469 135.832031 74.859375 135.710938 74.742188 C 135.59375 74.625 135.476562 74.503906 135.355469 74.386719 C 135.234375 74.269531 135.117188 74.148438 134.996094 74.03125 C 134.878906 73.914062 134.761719 73.792969 134.640625 73.675781 C 134.523438 73.558594 134.40625 73.4375 134.285156 73.320312 C 134.167969 73.203125 134.050781 73.082031 133.929688 72.964844 C 133.8125 72.847656 133.695312 72.726562 133.574219 72.605469 C 133.457031 72.488281 133.339844 72.367188 133.21875 72.25 C 133.097656 72.132812 132.980469 72.011719 132.859375 71.894531 C 132.742188 71.777344 132.625 71.65625 132.503906 71.539062 C 132.386719 71.421875 132.269531 71.300781 132.148438 71.183594 C 132.03125 71.066406 131.914062 70.945312 131.792969 70.828125 C 131.675781 70.710938 131.558594 70.589844 131.4375 70.46875 C 131.320312 70.351562 131.203125 70.230469 131.082031 70.113281 C 130.964844 69.996094 130.84375 69.875 130.722656 69.757812 C 130.605469 69.640625 130.488281 69.519531 130.367188 69.402344 C 130.25 69.285156 130.132812 69.164062 130.011719 69.046875 C 129.894531 68.929688 129.777344 68.808594 129.65625 68.691406 C 129.539062 68.574219 129.421875 68.453125 129.300781 68.332031 C 129.183594 68.214844 129.066406 68.09375 128.945312 67.976562 C 128.828125 67.859375 128.707031 67.738281 128.585938 67.621094 C 124.117188 63.066406 117.246094 59.121094 106.839844 59.121094 C 102.910156 59.121094 98.671875 59.664062 93.515625 60.828125 L 79.214844 63.980469 C 68.832031 66.152344 57.34375 69.902344 50.722656 81.128906 C 47.890625 85.933594 46.375 91.464844 46.097656 98.046875 C 45.90625 102.582031 46.285156 107.820312 47.304688 114.578125 L 70.765625 268.132812 C 72.496094 279.472656 74.863281 286.71875 78.679688 292.359375 C 79.707031 293.878906 80.980469 295.472656 82.535156 297 C 82.652344 297.117188 82.773438 297.238281 82.894531 297.355469 C 83.011719 297.476562 83.128906 297.597656 83.25 297.714844 C 83.367188 297.832031 83.484375 297.953125 83.605469 298.070312 C 83.722656 298.1875 83.839844 298.308594 83.960938 298.425781 C 84.078125 298.542969 84.195312 298.664062 84.316406 298.78125 C 84.433594 298.898438 84.550781 299.019531 84.671875 299.136719 C 84.789062 299.253906 84.910156 299.375 85.03125 299.492188 C 85.148438 299.613281 85.265625 299.734375 85.386719 299.851562 C 85.503906 299.96875 85.621094 300.089844 85.742188 300.207031 C 85.859375 300.324219 85.976562 300.445312 86.097656 300.5625 C 86.214844 300.679688 86.332031 300.800781 86.453125 300.917969 C 86.570312 301.035156 86.6875 301.15625 86.808594 301.273438 C 86.925781 301.390625 87.042969 301.511719 87.164062 301.628906 C 87.285156 301.75 87.402344 301.871094 87.523438 301.988281 C 87.640625 302.105469 87.757812 302.226562 87.878906 302.34375 C 87.996094 302.460938 88.113281 302.582031 88.234375 302.699219 C 88.351562 302.816406 88.46875 302.9375 88.589844 303.054688 C 88.707031 303.171875 88.824219 303.292969 88.945312 303.410156 C 89.0625 303.527344 89.179688 303.648438 89.300781 303.765625 C 89.421875 303.882812 89.539062 304.003906 89.660156 304.125 C 89.777344 304.242188 89.894531 304.363281 90.015625 304.480469 C 90.132812 304.597656 90.25 304.71875 90.371094 304.835938 C 90.488281 304.953125 90.605469 305.074219 90.726562 305.191406 C 90.84375 305.308594 90.960938 305.429688 91.082031 305.546875 C 91.199219 305.664062 91.316406 305.785156 91.4375 305.902344 C 91.558594 306.019531 91.675781 306.140625 91.796875 306.261719 C 91.914062 306.378906 92.03125 306.5 92.152344 306.617188 C 92.269531 306.734375 92.386719 306.855469 92.507812 306.972656 C 92.625 307.089844 92.742188 307.210938 92.863281 307.328125 C 97.292969 311.835938 104.144531 315.875 114.476562 315.875 C 118.640625 315.875 123.234375 315.234375 128.941406 313.859375 L 129.082031 313.824219 C 145.46875 309.726562 152.316406 304.300781 156.847656 299.53125 C 159.515625 296.730469 161.683594 293.632812 163.496094 290.359375 C 163.707031 290.578125 163.921875 290.789062 164.136719 291 C 164.253906 291.117188 164.371094 291.238281 164.492188 291.355469 C 164.609375 291.472656 164.730469 291.59375 164.847656 291.714844 C 164.96875 291.832031 165.085938 291.953125 165.207031 292.070312 C 165.324219 292.1875 165.441406 292.308594 165.5625 292.425781 C 165.679688 292.542969 165.796875 292.664062 165.917969 292.78125 C 166.035156 292.898438 166.152344 293.019531 166.273438 293.136719 C 166.390625 293.253906 166.507812 293.375 166.628906 293.492188 C 166.746094 293.609375 166.863281 293.730469 166.984375 293.851562 C 167.105469 293.96875 167.222656 294.089844 167.34375 294.207031 C 167.460938 294.324219 167.578125 294.445312 167.699219 294.5625 C 167.816406 294.679688 167.933594 294.800781 168.054688 294.917969 C 168.171875 295.035156 168.289062 295.15625 168.410156 295.273438 C 168.527344 295.390625 168.644531 295.511719 168.765625 295.628906 C 168.882812 295.746094 169 295.867188 169.121094 295.988281 C 169.242188 296.105469 169.359375 296.226562 169.480469 296.34375 C 169.597656 296.460938 169.714844 296.582031 169.835938 296.699219 C 169.953125 296.816406 170.070312 296.9375 170.191406 297.054688 C 170.308594 297.171875 170.425781 297.292969 170.546875 297.410156 C 170.664062 297.527344 170.78125 297.648438 170.902344 297.765625 C 171.019531 297.882812 171.136719 298.003906 171.257812 298.121094 C 171.375 298.242188 171.496094 298.363281 171.617188 298.480469 C 171.734375 298.597656 171.851562 298.71875 171.972656 298.835938 C 172.089844 298.953125 172.207031 299.074219 172.328125 299.191406 C 172.445312 299.308594 172.5625 299.429688 172.683594 299.546875 C 172.800781 299.664062 172.917969 299.785156 173.039062 299.902344 C 173.15625 300.019531 173.273438 300.140625 173.394531 300.257812 C 173.511719 300.378906 173.632812 300.5 173.753906 300.617188 C 173.871094 300.734375 173.988281 300.855469 174.109375 300.972656 C 174.226562 301.089844 174.34375 301.210938 174.464844 301.328125 C 181.230469 308.105469 189.832031 311.144531 197.527344 313.214844 L 197.648438 313.246094 C 203.734375 314.839844 208.390625 315.546875 212.738281 315.546875 C 224.484375 315.546875 231.800781 309.941406 235.867188 305.238281 C 239.914062 300.5625 242.929688 294.503906 245.953125 284.992188 L 293.558594 137.238281 C 297.035156 126.300781 299.625 114.648438 295.105469 103.574219 C 293.515625 99.683594 291.152344 96.183594 288.050781 93.113281 Z M 288.035156 93.117188 " fill-opacity="1" fill-rule="nonzero"/></g><path fill="#ffffff" d="M 103.789062 298.78125 C 95.144531 298.78125 88.484375 295.414062 83.984375 288.773438 C 80.734375 283.96875 78.675781 277.507812 77.09375 267.167969 L 53.640625 113.609375 C 51.851562 101.738281 51.609375 92.242188 56.246094 84.382812 C 61.609375 75.292969 71.535156 72.128906 80.558594 70.246094 L 94.910156 67.085938 C 99.601562 66.027344 103.398438 65.53125 106.84375 65.53125 C 118.203125 65.53125 124.195312 71.339844 127.21875 76.210938 C 130.414062 81.347656 132.171875 88.15625 133.101562 98.976562 L 134.644531 116.875 C 136.464844 110.410156 138.941406 103.953125 143.851562 99.320312 C 150.226562 93.308594 158.171875 92.539062 164.386719 92.539062 C 171.300781 92.539062 178.546875 92.949219 184.402344 97.835938 C 189.972656 102.484375 192.046875 109.152344 193.453125 117.742188 L 196.023438 134.207031 L 205.980469 98.980469 C 208.515625 89.914062 211.007812 84.1875 214.296875 79.863281 C 218.886719 73.832031 225.269531 70.644531 232.75 70.644531 C 237.460938 70.644531 242.617188 71.828125 249.476562 74.480469 L 249.617188 74.535156 L 256.613281 77.453125 C 265.199219 80.785156 274.476562 85.527344 278.476562 95.324219 C 282.222656 104.507812 279.863281 114.835938 276.753906 124.625 L 229.152344 272.375 C 226.410156 281.007812 223.769531 286.394531 220.328125 290.371094 C 215.683594 295.742188 209.53125 298.460938 202.042969 298.460938 C 198.265625 298.460938 194.109375 297.816406 188.574219 296.367188 L 188.496094 296.347656 C 180.453125 294.183594 172.203125 291.1875 166.328125 283.925781 C 160.65625 276.921875 158.78125 267.683594 157.597656 258.742188 L 156.347656 249.554688 L 153.957031 258.328125 C 151.46875 267.710938 148.234375 277.371094 141.511719 284.441406 C 134.582031 291.730469 125.558594 294.75 116.839844 296.925781 L 116.75 296.949219 C 111.550781 298.203125 107.433594 298.785156 103.789062 298.785156 Z M 103.789062 298.78125 " fill-opacity="1" fill-rule="nonzero"/><path fill="#00bf63" d="M 103.789062 290.949219 C 97.820312 290.949219 93.464844 288.800781 90.472656 284.382812 C 87.917969 280.601562 86.234375 275.101562 84.839844 265.984375 L 61.382812 112.425781 C 59.847656 102.222656 59.53125 94.234375 62.992188 88.363281 C 66.804688 81.902344 74.476562 79.519531 82.207031 77.90625 L 96.625 74.730469 C 100.675781 73.8125 104.023438 73.367188 106.84375 73.367188 C 121.785156 73.367188 124.152344 86.347656 125.300781 99.648438 L 130.589844 161.039062 L 141.777344 120.488281 C 143.582031 113.726562 145.542969 108.492188 149.222656 105.019531 C 152.679688 101.761719 157.214844 100.367188 164.382812 100.367188 C 171.550781 100.367188 175.894531 100.9375 179.382812 103.847656 C 183.089844 106.941406 184.59375 112.144531 185.71875 119.003906 L 193.8125 170.828125 L 213.519531 101.105469 C 217.429688 87.136719 222.007812 78.472656 232.75 78.472656 C 236.449219 78.472656 240.738281 79.492188 246.648438 81.78125 L 246.734375 81.816406 L 253.6875 84.714844 C 261.09375 87.582031 268.335938 91.214844 271.222656 98.273438 C 273.488281 103.832031 272.929688 110.777344 269.289062 122.246094 L 221.6875 269.988281 C 217.542969 283.050781 212.996094 290.625 202.042969 290.625 C 199.003906 290.625 195.351562 290.039062 190.554688 288.785156 C 173.179688 284.117188 168.003906 277.726562 165.367188 257.695312 L 158.925781 210.339844 L 146.390625 256.308594 C 143.355469 267.757812 140.292969 274.351562 135.835938 279.042969 C 131.351562 283.761719 125.296875 286.738281 114.941406 289.328125 C 110.335938 290.4375 106.796875 290.953125 103.789062 290.953125 Z M 103.789062 290.949219 " fill-opacity="1" fill-rule="nonzero"/><path fill="#efe44f" d="M 100.226562 278.839844 C 96.761719 278.839844 95.425781 277.867188 94.289062 276.1875 C 92.566406 273.644531 91.230469 268.953125 90.082031 261.433594 L 66.621094 107.875 C 65.160156 98.171875 65.300781 92.726562 67.097656 89.683594 C 68.761719 86.863281 72.640625 85.046875 80.476562 83.410156 L 94.976562 80.21875 C 98.417969 79.4375 101.128906 79.0625 103.28125 79.0625 C 106.976562 79.0625 108.375 80.125 109.441406 81.835938 C 111.105469 84.519531 112.191406 89.402344 112.867188 97.207031 L 119.859375 178.363281 L 130.328125 179.324219 L 146.808594 119.605469 C 148.46875 113.386719 149.949219 110.003906 151.769531 108.289062 C 152.9375 107.1875 154.925781 106.0625 160.820312 106.0625 C 166.21875 106.0625 168.917969 106.472656 170.117188 107.472656 C 171.425781 108.566406 172.460938 111.660156 173.367188 117.210938 L 183.964844 185.085938 L 194.382812 185.714844 L 218.519531 100.320312 C 222.699219 85.378906 225.820312 84.167969 229.1875 84.167969 C 231.65625 84.167969 235.132812 85.042969 239.808594 86.847656 L 246.804688 89.765625 L 246.867188 89.789062 C 254.375 92.691406 258.128906 95.277344 259.414062 98.429688 C 260.78125 101.777344 260.105469 107.296875 257.238281 116.339844 L 209.648438 264.039062 C 205.367188 277.53125 202.570312 278.5 198.480469 278.5 C 196.222656 278.5 193.292969 278.011719 189.257812 276.957031 C 181.902344 274.980469 178.121094 273.074219 175.769531 270.171875 C 173.292969 267.113281 171.804688 262.226562 170.628906 253.3125 L 161.828125 188.578125 L 151.386719 187.890625 L 134.230469 250.78125 C 129.351562 269.1875 125.382812 273.429688 109.246094 277.460938 C 105.433594 278.378906 102.480469 278.828125 100.230469 278.828125 Z M 100.226562 278.839844 " fill-opacity="1" fill-rule="nonzero"/></svg>